<svg width="512" height="512" viewBox="0 0 512 512" fill="none" xmlns="http://www.w3.org/2000/svg">
<path d="M181.333 405.333C151.466 405.333 128 428.8 128 458.666C128 488.532 151.467 512 181.333 512C211.2 512 234.666 488.533 234.666 458.667C234.666 428.801 211.2 405.333 181.333 405.333ZM181.333 490.666C164.266 490.666 149.333 475.732 149.333 458.666C149.333 441.6 164.266 426.666 181.333 426.666C198.4 426.666 213.333 441.6 213.333 458.666C213.333 475.732 198.4 490.666 181.333 490.666Z" fill="black"/>
<path d="M509.867 110.933C507.734 108.8 505.6 106.666 501.334 106.666H439.467L452.267 93.866C462.934 83.199 469.334 70.399 469.334 55.466C469.334 40.533 462.934 27.733 452.267 17.066C430.934 -4.267 394.667 -4.267 375.467 17.066L362.667 29.866V10.666C362.667 4.267 358.4 0 352 0H266.667C260.267 0 256 4.267 256 10.667V70.4L189.867 4.267C185.6 0 179.2 0 174.933 4.267L110.933 68.267C106.666 72.534 106.666 78.934 110.933 83.201L134.4 106.668H96L85.333 51.2C85.333 46.933 78.933 42.667 74.666 42.667H10.666C4.267 42.667 0 46.934 0 53.334C0 59.733 4.267 64 10.667 64H66.134L117.334 324.267C123.734 358.4 155.734 384 189.867 384H435.2C441.6 384 445.867 379.733 445.867 373.333C445.867 366.933 441.6 362.666 435.2 362.666H192C174.933 362.666 157.867 354.133 149.333 339.199L460.8 296.534C465.067 296.534 469.333 292.267 469.333 288.001L512 117.334C512 117.333 512 113.066 509.867 110.933ZM362.667 59.733L390.4 32C403.2 19.2 424.533 19.2 437.333 32C443.733 38.4 448 46.934 448 55.467C448 64 443.733 72.533 437.333 78.934L409.6 106.666H362.667V59.733V59.733ZM277.333 21.333H341.333V55.466V106.666H292.266L277.333 91.732V21.333ZM132.267 74.666L181.333 25.6L262.4 106.666H164.267L132.267 74.666ZM450.133 277.333L138.666 317.866L100.266 125.866H486.4L450.133 277.333Z" fill="black"/>
<path d="M394.667 405.333C364.8 405.333 341.334 428.8 341.334 458.666C341.334 488.532 364.8 512 394.667 512C424.533 512 448 488.533 448 458.666C448 428.799 424.533 405.333 394.667 405.333ZM394.667 490.666C377.6 490.666 362.667 475.732 362.667 458.666C362.667 441.6 377.6 426.666 394.667 426.666C411.734 426.666 426.667 441.6 426.667 458.666C426.667 475.732 411.733 490.666 394.667 490.666Z" fill="black"/>
</svg>
