<svg xmlns="http://www.w3.org/2000/svg" version="1.1" xmlns:xlink="http://www.w3.org/1999/xlink" width="512" height="512" x="0" y="0" viewBox="0 0 32 32" style="enable-background:new 0 0 512 512" xml:space="preserve" class=""><g><linearGradient id="a" x1="8" x2="21.27" y1="28.36" y2="5.38" gradientUnits="userSpaceOnUse"><stop offset="0" stop-color="#4551a3"></stop><stop offset="1" stop-color="#9ad7db"></stop><stop offset="1" stop-color="#5db9bf" stop-opacity=".5"></stop></linearGradient><path fill="url(#a)" d="M28 25H8a1 1 0 0 1-1-1v-1h17.49a3 3 0 0 0 3-2.51L29 11.33a2 2 0 0 0-.44-1.62A2 2 0 0 0 27 9H7V5a3 3 0 0 0-3-3 1 1 0 0 0 0 2 1 1 0 0 1 1 1v19a3 3 0 0 0 3 3h1.05a2.73 2.73 0 0 0-.05.5 2.5 2.5 0 0 0 5 0 2.73 2.73 0 0 0 0-.5h7.1a2.73 2.73 0 0 0-.05.5 2.5 2.5 0 0 0 5 0A2.73 2.73 0 0 0 26 27h2a1 1 0 0 0 0-2zm-1-14-1.53 9.16a1 1 0 0 1-1 .84H7V11zM11.5 28a.5.5 0 1 1 .5-.5.5.5 0 0 1-.5.5zm12 0a.5.5 0 1 1 .5-.5.5.5 0 0 1-.5.5z" data-name="Layer 2" opacity="1" data-original="url(#a)" class=""></path></g></svg>