<svg width="46" height="46" viewBox="0 0 46 46" fill="none" xmlns="http://www.w3.org/2000/svg">
<path d="M8.06519 23C8.06519 31.2351 14.7649 37.9349 22.9999 37.9349C31.235 37.9349 37.9347 31.2351 37.9347 23C37.9347 14.765 31.235 8.06512 22.9999 8.06512C14.7649 8.06512 8.06519 14.765 8.06519 23ZM35.8106 23C35.8106 30.064 30.0637 35.8108 22.9999 35.8108C15.9361 35.8108 10.1893 30.064 10.1893 23C10.1893 15.9361 15.9361 10.1892 22.9999 10.1892C30.0637 10.1892 35.8106 15.9361 35.8106 23Z" fill="white"/>
<path d="M22.0444 14.6317V16.2953C21.4467 16.4334 20.8827 16.693 20.3635 17.0763C18.9431 18.1246 18.3047 19.5774 18.6558 20.9624C18.9935 22.2944 20.2052 23.2624 21.8183 23.4886C25.4756 24.001 26.0709 24.5472 25.9143 25.8282C25.8309 26.5107 25.4386 26.9994 24.7483 27.28C23.5813 27.7546 21.5581 27.5533 19.6678 26.0342L18.3373 27.6901C19.4802 28.6085 20.7715 29.2166 22.0441 29.4818V31.368H24.1682V29.5934C24.6501 29.5376 25.114 29.424 25.5482 29.2474C26.9447 28.6797 27.8466 27.5273 28.0228 26.0855C28.2227 24.4491 27.5808 23.1828 26.1666 22.4237C25.0706 21.8353 23.6238 21.5964 22.1131 21.3847C21.3606 21.2793 20.8379 20.9262 20.7147 20.4402C20.5832 19.9215 20.9235 19.3028 21.6248 18.7851C22.3676 18.2371 23.2428 18.1563 24.3006 18.5381C25.1982 18.8623 25.8595 19.4046 25.866 19.41L26.5461 18.5943L27.2292 17.7811C27.1378 17.7042 26.2999 17.0168 25.092 16.5659C24.7798 16.4494 24.4719 16.3605 24.1684 16.2965V14.6316L22.0444 14.6317Z" fill="white"/>
<path d="M23 2.12411C27.5683 2.12411 31.9138 3.58366 35.5039 6.27986H32.7109V8.40397H39.5455V1.56929H37.4214V5.08101C33.3468 1.78963 28.3098 0 23 0C10.3178 0 0 10.3178 0 23H2.12411C2.12411 11.489 11.489 2.12411 23 2.12411Z" fill="white"/>
<path d="M43.8759 23C43.8759 34.511 34.511 43.8759 23.0001 43.8759C18.5614 43.8759 14.3208 42.4928 10.7856 39.9335H13.5587V37.8094H6.724V44.6441H8.84811V41.1318C12.8763 44.2858 17.8152 46 23.0001 46C35.6824 46 46.0001 35.6823 46.0001 23H43.8759Z" fill="white"/>
</svg>
